#!OML:ASF I:\Actors\actors\Patient Classification 2\Patient 1\Session 1\actor1.ASF
:FULLY-SPECIFIED
:DEGREES
63
root -0.702968 18.7093 5.48427 2.86814 -2.27063 -2.38408
lowerback -0.295792 1.17585 1.03649
upperback -2.74802 1.58715 0.23419
thorax -2.63098 0.771666 -0.371608
lowerneck -9.74313 -3.86895 -4.76371
upperneck 24.7219 -5.85935 5.2586
head 9.70695 -2.61004 1.973
rclavicle -4.39811e-015 6.75868e-015
rhumerus -47.8708 -3.95777 -86.9645
rradius 41.7644
rwrist 25.808
rhand -6.72257 -27.5447
rfingers 7.12502
rthumb 19.1376 -56.6231
lclavicle -4.39811e-015 6.75868e-015
lhumerus -41.7464 1.32201 90.4669
lradius 36.0029
lwrist -9.87802
lhand -6.36204 -27.3624
lfingers 7.12502
lthumb 19.4843 1.68133
rfemur 0 0 0
rtibia 0
rfoot 0 0
rtoes 0
lfemur -5.6404 -7.42232 -11.7915
ltibia 21.2558
lfoot -24.4074 16.9868
ltoes -54.6808
64
root -0.703019 18.7094 5.48447 2.87035 -2.23248 -2.36359
lowerback -0.311261 1.16948 1.02656
upperback -2.74712 1.57784 0.212762
thorax -2.62112 0.767035 -0.387477
lowerneck -9.73744 -3.85821 -4.7655
upperneck 24.7078 -5.85742 5.31439
head 9.70248 -2.60352 1.99306
rclavicle -1.99282e-014 -5.76476e-015
rhumerus -47.8837 -3.96693 -86.9901
rradius 41.7796
rwrist 25.7801
rhand -6.71351 -27.6122
rfingers 7.12502
rthumb 19.1463 -56.6898
lclavicle -1.99282e-014 -5.76476e-015
lhumerus -41.7468 0.954038 90.5525
lradius 36.1442
lwrist -9.57211
lhand -6.15501 -27.1985
lfingers 7.12502
lthumb 19.6833 1.82497
rfemur 0 0 0
rtibia 0
rfoot 0 0
rtoes 0
lfemur -5.64913 -7.4072 -11.8096
ltibia 21.2516
lfoot -24.3789 16.9509
ltoes -54.7342
65
root -0.703599 18.7101 5.48376 2.89418 -2.197 -2.35734
lowerback -0.325405 1.14668 1.0079
upperback -2.75358 1.54695 0.208759
thorax -2.62059 0.751978 -0.380331
lowerneck -9.75832 -3.82845 -4.76186
upperneck 24.7051 -5.82205 5.34187
head 9.70408 -2.58347 2.00587
rclavicle -1.50455e-014 -2.38542e-015
rhumerus -47.9004 -3.90801 -87.0456
rradius 41.822
rwrist 25.7305
rhand -6.74169 -27.7121
rfingers 7.12502
rthumb 19.1192 -56.7923
lclavicle -1.50455e-014 -2.38542e-015
lhumerus -41.7801 0.596316 90.6241
lradius 36.4803
lwrist -8.92093
lhand -5.81947 -26.8196
lfingers 7.12502
lthumb 20.0059 2.17051
rfemur 0 0 0
rtibia 0
rfoot 0 0
rtoes 0
lfemur -5.6919 -7.39855 -11.8062
ltibia 21.2611
lfoot -24.3511 16.9084
ltoes -54.7371
66
root -0.704955 18.7105 5.48282 2.88936 -2.16316 -2.38388
lowerback -0.309246 1.12356 1.01592
upperback -2.7345 1.51655 0.222016
thorax -2.61058 0.736886 -0.370758
lowerneck -9.83213 -3.81192 -4.76265
upperneck 24.7159 -5.78814 5.31052
head 9.71912 -2.56969 1.99785
rclavicle 8.01351e-015 1.78906e-015
rhumerus -47.8794 -3.83299 -87.0969
rradius 41.8629
rwrist 25.6937
rhand -6.78655 -27.6847
rfingers 7.12502
rthumb 19.0761 -56.7692
lclavicle 8.01351e-015 1.78906e-015
lhumerus -41.7309 0.251338 90.6912
lradius 36.918
lwrist -7.81106
lhand -5.30347 -26.2843
lfingers 7.12502
lthumb 20.5018 2.65325
rfemur 0 0 0
rtibia 0
rfoot 0 0
rtoes 0
lfemur -5.71118 -7.33255 -11.7629
ltibia 21.2854
lfoot -24.2782 16.8379
ltoes -54.77
67
root -0.706 18.7104 5.48137 2.87302 -2.11231 -2.40382
lowerback -0.297487 1.1129 1.03674
upperback -2.70537 1.5024 0.217864
thorax -2.58674 0.729509 -0.386278
lowerneck -9.84302 -3.81249 -4.75681
upperneck 24.6878 -5.77794 5.27191
head 9.70927 -2.56854 1.98421
rclavicle 2.84511e-015 -4.57205e-015
rhumerus -47.8425 -3.77455 -87.1488
rradius 41.8658
rwrist 25.6636
rhand -6.87258 -27.5835
rfingers 7.12502
rthumb 18.9934 -56.6761
lclavicle 2.84511e-015 -4.57205e-015
lhumerus -41.6654 -0.285135 90.8272
lradius 37.5172
lwrist -6.00392
lhand -5.22456 -26.0806
lfingers 7.12502
lthumb 20.5776 2.84873
rfemur 0 0 0
rtibia 0
rfoot 0 0
rtoes 0
lfemur -5.73061 -7.26597 -11.7271
ltibia 21.3218
lfoot -24.2254 16.7633
ltoes -54.8657
68
root -0.706956 18.7105 5.47868 2.86895 -2.08639 -2.41753
lowerback -0.303973 1.12468 1.04986
upperback -2.67169 1.5176 0.203716
thorax -2.54746 0.736963 -0.407817
lowerneck -9.82591 -3.819 -4.75971
upperneck 24.6354 -5.78305 5.26874
head 9.68763 -2.57216 1.98296
rclavicle -2.51587e-014 4.17448e-015
rhumerus -47.783 -3.70143 -87.2052
rradius 41.8489
rwrist 25.571
rhand -6.98809 -27.4858
rfingers 7.12502
rthumb 18.8823 -56.5893
lclavicle -2.51587e-014 4.17448e-015
lhumerus -41.6391 -1.14928 91.0764
lradius 38.3471
lwrist -3.6444
lhand -5.82573 -26.3163
lfingers 7.12502
lthumb 19.9999 2.67443
rfemur 0 0 0
rtibia 0
rfoot 0 0
rtoes 0
lfemur -5.7657 -7.25194 -11.7035
ltibia 21.3634
lfoot -24.2134 16.7498
ltoes -54.9563
